<svg width="20" height="20" viewBox="0 0 20 20" fill="none" xmlns="http://www.w3.org/2000/svg">
<path d="M10.5781 0C9.5625 0 8.58594 0.208333 7.64844 0.625C6.72396 1.02865 5.92318 1.57552 5.24609 2.26562C4.56901 2.94271 4.02214 3.75 3.60547 4.6875C3.20182 5.625 3 6.60156 3 7.61719C3 8.1901 3.07812 8.78906 3.23438 9.41406C3.39062 10.0391 3.57292 10.6185 3.78125 11.1523C3.98958 11.6862 4.28906 12.2786 4.67969 12.9297C5.07031 13.5807 5.41536 14.1341 5.71484 14.5898C6.02734 15.0326 6.44401 15.5794 6.96484 16.2305C7.48568 16.8685 7.88932 17.3568 8.17578 17.6953C8.46224 18.0339 8.86589 18.5026 9.38672 19.1016C9.54297 19.2839 9.66016 19.4141 9.73828 19.4922C9.76432 19.5312 9.8099 19.5768 9.875 19.6289C9.9401 19.694 10.0573 19.7721 10.2266 19.8633C10.3958 19.9544 10.5586 20 10.7148 20H10.7734C11.138 20 11.4635 19.8307 11.75 19.4922C15.9167 14.7005 18 10.7422 18 7.61719C18 5.44271 17.3359 3.63932 16.0078 2.20703C14.6276 0.735677 12.8177 0 10.5781 0ZM10.8125 18.6523C10.7995 18.6784 10.7734 18.7044 10.7344 18.7305C10.7083 18.7044 10.6823 18.6784 10.6562 18.6523L10.3242 18.2812C9.82943 17.7083 9.44531 17.2656 9.17188 16.9531C8.89844 16.6276 8.51432 16.1589 8.01953 15.5469C7.52474 14.9349 7.13411 14.4206 6.84766 14.0039C6.5612 13.5742 6.22917 13.0599 5.85156 12.4609C5.47396 11.849 5.18099 11.3021 4.97266 10.8203C4.77734 10.3255 4.60807 9.79818 4.46484 9.23828C4.32161 8.66537 4.25 8.125 4.25 7.61719C4.25 6.48438 4.53646 5.42969 5.10938 4.45312C5.68229 3.46354 6.45052 2.68229 7.41406 2.10938C8.39063 1.53646 9.44531 1.25 10.5781 1.25C11.6068 1.25 12.5247 1.43229 13.332 1.79688C14.1393 2.14844 14.7839 2.63021 15.2656 3.24219C15.7604 3.85417 16.1315 4.53125 16.3789 5.27344C16.6263 6.01563 16.75 6.79688 16.75 7.61719C16.75 10.4297 14.7708 14.1081 10.8125 18.6523ZM10.5195 3.76953C10.1159 3.76953 9.71875 3.83464 9.32813 3.96484C8.95052 4.09505 8.60547 4.27734 8.29297 4.51172C7.99349 4.73307 7.72656 5 7.49219 5.3125C7.25781 5.625 7.07552 5.97005 6.94531 6.34766C6.82813 6.72526 6.76953 7.11589 6.76953 7.51953C6.76953 8.5612 7.13411 9.44662 7.86328 10.1758C8.60547 10.9049 9.49089 11.2695 10.5195 11.2695C11.5612 11.2695 12.4466 10.9049 13.1758 10.1758C13.9049 9.44662 14.2695 8.5612 14.2695 7.51953C14.2695 7.01172 14.1719 6.52995 13.9766 6.07422C13.7813 5.60547 13.5143 5.20833 13.1758 4.88281C12.8372 4.54427 12.4336 4.27734 11.9648 4.08203C11.5091 3.8737 11.0273 3.76953 10.5195 3.76953ZM10.5195 10.0195C9.82943 10.0195 9.23698 9.77214 8.74219 9.27734C8.2474 8.78255 8 8.1901 8 7.5C8 6.8099 8.24089 6.22396 8.72266 5.74219C9.21745 5.2474 9.8099 5 10.5 5C11.1901 5 11.776 5.2474 12.2578 5.74219C12.7526 6.22396 13 6.8099 13 7.5C13 8.35938 12.655 9.04297 11.9648 9.55078C11.5352 9.86328 11.0534 10.0195 10.5195 10.0195Z" fill="#C78E66"/>
</svg>
