<svg width="91" height="90" viewBox="0 0 91 90" fill="none" xmlns="http://www.w3.org/2000/svg">
<path d="M40.0938 45.5109L44.1612 41.4434L60.4312 57.7134C61.5544 58.8366 61.5544 60.6577 60.4312 61.7809C59.308 62.9041 57.4869 62.9041 56.3637 61.7809L49.2456 54.6628" stroke="white" stroke-width="2"/>
<path d="M44.6709 50.0859L59.4156 64.8305C60.5388 65.9537 60.5388 67.7748 59.4156 68.898C58.2924 70.0212 56.4713 70.0212 55.3481 68.898L40.6035 54.1534" stroke="white" stroke-width="2" stroke-linecap="round"/>
<path d="M45.2229 40.383L38.569 47.0369C37.165 48.4409 34.8886 48.4409 33.4846 47.0369C32.0806 45.6329 32.0806 43.3566 33.4846 41.9526L44.1618 31.2754" stroke="white" stroke-width="2" stroke-linecap="round" stroke-linejoin="round"/>
<path d="M60.4323 43.4764C52.7947 44.6823 49.7551 42.9679 47.2129 40.4258" stroke="white" stroke-width="2" stroke-linecap="round" stroke-linejoin="round"/>
<path d="M41.1105 54.6621L51.2792 64.8309C52.4024 65.9541 52.4024 67.7751 51.2792 68.8984C50.156 70.0216 48.3349 70.0216 47.2117 68.8984L37.043 58.7296" stroke="white" stroke-width="2" stroke-linecap="round"/>
<path d="M33.9922 55.6797L44.1609 65.8485C45.2841 66.9717 45.2841 68.7928 44.1609 69.916C43.0377 71.0392 41.2166 71.0392 40.0934 69.916" stroke="white" stroke-width="2" stroke-linecap="round"/>
<path d="M75.6854 38.3926L70.2519 43.8261C69.8128 44.2652 69.4828 44.8002 69.2654 45.3819C68.361 47.8015 65.5746 54.6047 61.4492 58.73" stroke="white" stroke-width="2" stroke-linecap="round"/>
<path d="M34.5008 72.4586C35.9048 73.8626 38.1811 73.8626 39.5852 72.4586C40.9892 71.0546 40.9892 68.7782 39.5852 67.3742C38.1811 65.9702 35.9048 65.9702 34.5008 67.3742C33.0968 68.7782 33.0968 71.0546 34.5008 72.4586Z" stroke="white" stroke-width="2"/>
<path d="M29.4168 67.3726C30.8208 68.7767 33.0972 68.7767 34.5012 67.3726C35.9052 65.9686 35.9052 63.6923 34.5012 62.2883C33.0972 60.8843 30.8208 60.8843 29.4168 62.2883C28.0128 63.6923 28.0128 65.9686 29.4168 67.3726Z" stroke="white" stroke-width="2"/>
<path d="M24.3328 62.2887C25.7368 63.6927 28.0132 63.6927 29.4172 62.2887C30.8212 60.8847 30.8212 58.6083 29.4172 57.2043C28.0132 55.8003 25.7368 55.8003 24.3328 57.2043C22.9288 58.6083 22.9288 60.8847 24.3328 62.2887Z" stroke="white" stroke-width="2"/>
<path d="M85.1461 31.5836L69.2735 15.711C68.883 15.3205 68.2498 15.3205 67.8593 15.711L61.1385 22.4318C60.748 22.8223 60.748 23.4555 61.1385 23.846L77.0112 39.7186C77.4017 40.1092 78.0349 40.1092 78.4254 39.7186L85.1461 32.9979C85.5367 32.6073 85.5367 31.9742 85.1461 31.5836Z" stroke="white" stroke-width="2"/>
<path d="M14.3617 40.736L30.2343 24.8634C30.6248 24.4728 30.6248 23.8397 30.2343 23.4491L23.5135 16.7284C23.123 16.3379 22.4898 16.3379 22.0993 16.7284L6.22668 32.601C5.83616 32.9915 5.83616 33.6247 6.22668 34.0152L12.9474 40.736C13.338 41.1265 13.9711 41.1265 14.3617 40.736Z" stroke="white" stroke-width="2"/>
<path d="M75.6843 34.326C76.2459 34.8876 77.1564 34.8876 77.718 34.326C78.2797 33.7644 78.2797 32.8539 77.718 32.2923C77.1564 31.7307 76.2459 31.7307 75.6843 32.2923C75.1227 32.8539 75.1227 33.7644 75.6843 34.326Z" fill="white"/>
<path d="M11.6212 31.2741C11.0596 31.8357 11.0596 32.7463 11.6212 33.3079C12.1829 33.8695 13.0934 33.8695 13.655 33.3079C14.2166 32.7463 14.2166 31.8357 13.655 31.2741C13.0934 30.7125 12.1829 30.7125 11.6212 31.2741Z" fill="white"/>
<path d="M29.9258 25.1719L34.2711 29.5171C35.0659 30.3119 36.1583 30.7356 37.2811 30.6846L56.3401 29.8183C57.3371 29.773 58.2811 29.3566 58.9869 28.6508L62.4658 25.1719" stroke="white" stroke-width="2" stroke-linecap="round"/>
<path d="M15.6895 39.4082L19.1325 42.8512C20.1475 43.8662 20.5087 45.3647 20.6065 46.7968C20.7709 49.203 21.8751 52.712 25.3498 56.1866" stroke="white" stroke-width="2" stroke-linecap="round"/>
</svg>
