<svg width="91" height="90" viewBox="0 0 91 90" fill="none" xmlns="http://www.w3.org/2000/svg">
<path d="M19.5 24.5682C19.5 24.5682 35.0833 20.3409 44.2917 14C53.5 20.3409 70.5 24.5682 70.5 24.5682V38.7897C70.5 45.2473 69.7495 51.7511 66.9345 57.5628C63.0557 65.5707 55.9098 76 45 76C34.0902 76 26.9443 65.5707 23.0655 57.5628C20.2505 51.7511 19.5 45.2473 19.5 38.7897V24.5682Z" stroke="white" stroke-width="2"/>
<path d="M29.1603 42.0121C28.2315 42.992 28.2875 44.5174 29.2906 45.4298L39.0906 54.3441C40.0645 55.23 41.5821 55.2167 42.5395 54.3149L60.7395 37.1721C61.7256 36.2433 61.7553 34.7172 60.8086 33.7527C59.8506 32.7767 58.2568 32.7453 57.2591 33.6851L41.443 48.5825C41.0628 48.9406 40.4709 48.9458 40.0845 48.5943L32.708 41.8845C31.6931 40.9613 30.1002 41.0206 29.1603 42.0121ZM29.1603 42.0121L28.4453 41.3344" stroke="white" stroke-width="2" stroke-linecap="round" stroke-linejoin="round"/>
<path d="M24.5 35V28.7692C26.6 28.3077 30.1 26.6923 31.5 26" stroke="white" stroke-width="2" stroke-linecap="round"/>
<path d="M35 26C35.8284 26 36.5 25.3284 36.5 24.5C36.5 23.6716 35.8284 23 35 23C34.1716 23 33.5 23.6716 33.5 24.5C33.5 25.3284 34.1716 26 35 26Z" fill="white"/>
<path d="M48 70C48.8284 70 49.5 69.3284 49.5 68.5C49.5 67.6716 48.8284 67 48 67C47.1716 67 46.5 67.6716 46.5 68.5C46.5 69.3284 47.1716 70 48 70Z" fill="white"/>
<path d="M52.5 66C56.5 63 58.5 60.75 60.5 57" stroke="white" stroke-width="2" stroke-linecap="round"/>
</svg>
