<svg width="148" height="30" viewBox="0 0 148 30" fill="none" xmlns="http://www.w3.org/2000/svg">
<g clip-path="url(#clip0_1910_22828)">
<path fill-rule="evenodd" clip-rule="evenodd" d="M123.746 16.4846V0.0683594H144.451C146.39 0.0683594 147.963 1.63836 147.963 3.57336V12.9796C147.963 13.9084 147.594 14.7994 146.935 15.4566C146.276 16.1139 145.383 16.4836 144.451 16.4846H123.746ZM142.183 3.05461H127.772V13.4984H142.183C142.414 13.498 142.642 13.4524 142.855 13.3642C143.068 13.2759 143.261 13.1468 143.424 12.984C143.587 12.8213 143.716 12.6282 143.804 12.4157C143.892 12.2033 143.937 11.9757 143.937 11.7459V4.80836C143.937 4.57844 143.892 4.35068 143.804 4.13809C143.717 3.9255 143.588 3.73225 143.425 3.56938C143.262 3.40651 143.068 3.27722 142.855 3.1889C142.642 3.10057 142.414 3.05494 142.183 3.05461Z" fill="url(#paint0_linear_1910_22828)"/>
<path d="M3.52013 0.0898438C2.59559 0.0908378 1.7093 0.457735 1.05615 1.10986C0.40299 1.76198 0.0364446 2.64593 0.0371103 3.56734V12.8961C0.0367775 13.8172 0.40351 14.7007 1.05667 15.3523C1.70982 16.004 2.59593 16.3704 3.52013 16.3711H24.0583V13.4111H5.77148C5.54276 13.4109 5.31631 13.3658 5.10508 13.2784C4.89385 13.191 4.70197 13.063 4.54042 12.9016C4.37886 12.7402 4.25079 12.5487 4.16353 12.338C4.07627 12.1273 4.03153 11.9015 4.03186 11.6736V9.58734H22.587V6.62609H4.03186V4.78859C4.03186 3.82859 4.80948 3.05234 5.77274 3.05234H24.0595V0.0898438H3.52013Z" fill="url(#paint1_linear_1910_22828)"/>
<path d="M43.0008 6.19844L35.296 0.242188H30.0696L40.387 8.21844L30.0684 16.1934H35.296L43.0008 10.2384L50.7068 16.1947H55.932L45.6134 8.21844L55.932 0.243437H50.7068L43.0008 6.19844Z" fill="url(#paint2_linear_1910_22828)"/>
<path d="M61.9434 3.58367C61.943 3.12749 62.0329 2.67571 62.2077 2.25413C62.3826 1.83255 62.639 1.44943 62.9625 1.12663C63.2859 0.803827 63.67 0.547677 64.0927 0.372802C64.5155 0.197926 64.9686 0.10775 65.4264 0.107422H85.9645V3.06867H67.6765C67.2143 3.069 66.7712 3.25221 66.4445 3.57801C66.1178 3.90382 65.9343 4.34557 65.9343 4.80617V6.64242H84.4933V9.60492H65.9343V11.6912C65.9347 12.1516 66.1183 12.593 66.445 12.9185C66.7716 13.2441 67.2145 13.4271 67.6765 13.4274H85.9633V16.3899H65.4276C64.5034 16.3893 63.6173 16.0228 62.9642 15.3712C62.311 14.7195 61.9443 13.836 61.9446 12.9149L61.9434 3.58367Z" fill="url(#paint3_linear_1910_22828)"/>
<path d="M96.3756 0.119141C95.4511 0.120135 94.5648 0.487032 93.9116 1.13915C93.2585 1.79128 92.8919 2.67523 92.8926 3.59664V12.9266C92.8926 13.8476 93.2594 14.7309 93.9125 15.3825C94.5656 16.0341 95.4515 16.4006 96.3756 16.4016H116.914V13.4416H98.627C98.1646 13.4416 97.7211 13.2586 97.3942 12.9327C97.0672 12.6069 96.8836 12.165 96.8836 11.7041V9.61664H115.441V6.65414H96.8848V4.81914C96.8846 4.59097 96.9296 4.365 97.017 4.15413C97.1045 3.94327 97.2328 3.75163 97.3945 3.59018C97.5563 3.42872 97.7484 3.3006 97.9599 3.21313C98.1713 3.12566 98.398 3.08055 98.627 3.08039H116.914V0.119141H96.3756Z" fill="url(#paint4_linear_1910_22828)"/>
<path fill-rule="evenodd" clip-rule="evenodd" d="M8.51627 28.698C8.51627 29.5967 8.09234 30.0005 7.178 30.0005H0V24.2305H7.00868C7.92427 24.2305 8.34695 24.6342 8.34695 25.533V25.953C8.34695 26.523 8.15129 26.8842 7.76248 27.0255C8.26166 27.1492 8.51502 27.5192 8.51502 28.1542L8.51627 28.698ZM6.38407 25.9205C6.38407 25.6492 6.29 25.558 6.01031 25.558H1.96414V26.5142H6.01031C6.29 26.5142 6.38281 26.423 6.38281 26.1517L6.38407 25.9205ZM6.55214 27.9567C6.55214 27.6842 6.45932 27.5942 6.17963 27.5942H1.96414V28.673H6.17837C6.45932 28.673 6.55214 28.583 6.55214 28.3105V27.9567Z" fill="url(#paint5_linear_1910_22828)"/>
<path fill-rule="evenodd" clip-rule="evenodd" d="M11.7186 24.2305C10.5584 24.2305 10.0078 24.7505 10.0078 25.8955V28.3355C10.0078 29.4805 10.5584 30.0005 11.7186 30.0005H17.1519C18.3121 30.0005 18.8615 29.4805 18.8615 28.3355V25.8955C18.8615 24.7505 18.3121 24.2305 17.1519 24.2305H11.7186ZM12.5138 28.493C12.1074 28.493 11.9719 28.3605 11.9719 27.9655V26.2655C11.9719 25.8705 12.1074 25.7392 12.5138 25.7392H16.3568C16.7544 25.7392 16.8973 25.8705 16.8973 26.2667V27.9642C16.8973 28.3605 16.7544 28.4917 16.3568 28.4917H12.5138V28.493Z" fill="url(#paint6_linear_1910_22828)"/>
<path fill-rule="evenodd" clip-rule="evenodd" d="M28.8763 25.7305C28.8763 24.6755 28.4185 24.2305 27.3336 24.2305H20.4453V30.0005H22.4082V28.1467H25.1086L26.7341 30.0005H29.1297L27.3524 28.013C28.4273 28.0067 28.8763 27.5692 28.8763 26.513V25.7305ZM26.9122 26.4305C26.9122 26.768 26.8018 26.8767 26.4556 26.8767H22.4082V25.5417H26.4556C26.8018 25.5417 26.9122 25.6492 26.9122 25.9855V26.4305Z" fill="url(#paint7_linear_1910_22828)"/>
<path d="M32.3463 26.258L37.6116 30.0005H39.2195V24.2305H37.3231V27.9142L32.1356 24.2305H30.4512V30.0005H32.3463V26.258Z" fill="url(#paint8_linear_1910_22828)"/>
<path d="M44.2676 24.2305H51.9686V25.7055H46.2317V26.6805H51.6312V28.0142H46.2317V30.0005H44.2676V24.2305Z" fill="url(#paint9_linear_1910_22828)"/>
<path fill-rule="evenodd" clip-rule="evenodd" d="M53.2578 25.8955C53.2578 24.7505 53.8072 24.2305 54.9673 24.2305H60.4007C61.5609 24.2305 62.1115 24.7505 62.1115 25.8955V28.3355C62.1115 29.4805 61.5609 30.0005 60.4007 30.0005H54.9673C53.8072 30.0005 53.2578 29.4805 53.2578 28.3355V25.8955ZM55.2219 27.9642C55.2219 28.3605 55.3561 28.4917 55.7625 28.4917H59.6055C60.0031 28.4917 60.1473 28.3605 60.1473 27.9655V26.2655C60.1473 25.8705 60.0031 25.7392 59.6055 25.7392H55.7638C55.3574 25.7392 55.2232 25.8705 55.2232 26.2667L55.2219 27.9642Z" fill="url(#paint10_linear_1910_22828)"/>
<path fill-rule="evenodd" clip-rule="evenodd" d="M70.5829 24.2305C71.6665 24.2305 72.1231 24.6755 72.1231 25.7305V26.5142C72.1231 27.5692 71.6741 28.0067 70.5992 28.0142L72.379 30.0005H69.9834L68.3579 28.1467H65.6575V30.0005H63.6934V24.2305H70.5829ZM69.7024 26.8767C70.0498 26.8767 70.1602 26.7692 70.1602 26.4305V25.9867C70.1602 25.6492 70.0498 25.5417 69.7024 25.5417H65.6575V26.8755L69.7024 26.8767Z" fill="url(#paint11_linear_1910_22828)"/>
<path d="M82.0138 27.4455L85.2046 24.2305H86.8728V30.0005H84.9738V26.613L82.5118 29.1017H81.4444L78.9823 26.6142V30.0005H77.0859V24.2305H78.8293L82.0113 27.4455H82.0138Z" fill="url(#paint12_linear_1910_22828)"/>
<path fill-rule="evenodd" clip-rule="evenodd" d="M88.4648 25.8955C88.4648 24.7505 89.0142 24.2305 90.1731 24.2305H95.6065C96.7666 24.2305 97.3173 24.7505 97.3173 25.8955V28.3355C97.3173 29.4805 96.7666 30.0005 95.6065 30.0005H90.1731C89.0142 30.0005 88.4648 29.4805 88.4648 28.3355V25.8955ZM90.4277 27.9642C90.4277 28.3605 90.5632 28.4917 90.9696 28.4917H94.8113C95.2101 28.4917 95.3544 28.3605 95.3544 27.9655V26.2655C95.3544 25.8705 95.2101 25.7392 94.8113 25.7392H90.9696C90.5632 25.7392 90.4277 25.8705 90.4277 26.2667V27.9642Z" fill="url(#paint13_linear_1910_22828)"/>
<path fill-rule="evenodd" clip-rule="evenodd" d="M105.794 24.2305C106.875 24.2305 107.333 24.6755 107.333 25.7305V26.5142C107.333 27.5692 106.884 28.0067 105.809 28.0142L107.587 30.0005H105.192L103.566 28.1467H100.865V30.0005H98.9004V24.2305H105.791H105.794ZM104.912 26.8767C105.259 26.8767 105.368 26.7692 105.368 26.4305V25.9867C105.368 25.6492 105.259 25.5417 104.912 25.5417H100.865V26.8755H104.911L104.912 26.8767Z" fill="url(#paint14_linear_1910_22828)"/>
<path d="M116.696 24.2305H108.908V30.0005H116.78V28.6005H110.874V27.6505H116.358V26.463H110.874V25.6317H116.697V24.2317L116.696 24.2305Z" fill="url(#paint15_linear_1910_22828)"/>
</g>
<defs>
<linearGradient id="paint0_linear_1910_22828" x1="74.0005" y1="0.0683594" x2="74.0005" y2="16.4846" gradientUnits="userSpaceOnUse">
<stop stop-color="#E3B69F"/>
<stop offset="1" stop-color="#C38A6E"/>
</linearGradient>
<linearGradient id="paint1_linear_1910_22828" x1="73.9995" y1="0.0660938" x2="73.9995" y2="16.4823" gradientUnits="userSpaceOnUse">
<stop stop-color="#E3B69F"/>
<stop offset="1" stop-color="#C38A6E"/>
</linearGradient>
<linearGradient id="paint2_linear_1910_22828" x1="74.0005" y1="0.0671875" x2="74.0005" y2="16.4834" gradientUnits="userSpaceOnUse">
<stop stop-color="#E3B69F"/>
<stop offset="1" stop-color="#C38A6E"/>
</linearGradient>
<linearGradient id="paint3_linear_1910_22828" x1="74.0016" y1="0.0686719" x2="74.0016" y2="16.4849" gradientUnits="userSpaceOnUse">
<stop stop-color="#E3B69F"/>
<stop offset="1" stop-color="#C38A6E"/>
</linearGradient>
<linearGradient id="paint4_linear_1910_22828" x1="74" y1="0.0678906" x2="74" y2="16.4841" gradientUnits="userSpaceOnUse">
<stop stop-color="#E3B69F"/>
<stop offset="1" stop-color="#C38A6E"/>
</linearGradient>
<linearGradient id="paint5_linear_1910_22828" x1="58.391" y1="24.2305" x2="58.391" y2="30.0005" gradientUnits="userSpaceOnUse">
<stop stop-color="#E3B69F"/>
<stop offset="1" stop-color="#C38A6E"/>
</linearGradient>
<linearGradient id="paint6_linear_1910_22828" x1="58.3925" y1="24.2305" x2="58.3925" y2="30.0005" gradientUnits="userSpaceOnUse">
<stop stop-color="#E3B69F"/>
<stop offset="1" stop-color="#C38A6E"/>
</linearGradient>
<linearGradient id="paint7_linear_1910_22828" x1="58.391" y1="24.2305" x2="58.391" y2="30.0005" gradientUnits="userSpaceOnUse">
<stop stop-color="#E3B69F"/>
<stop offset="1" stop-color="#C38A6E"/>
</linearGradient>
<linearGradient id="paint8_linear_1910_22828" x1="58.3906" y1="24.2305" x2="58.3906" y2="30.0005" gradientUnits="userSpaceOnUse">
<stop stop-color="#E3B69F"/>
<stop offset="1" stop-color="#C38A6E"/>
</linearGradient>
<linearGradient id="paint9_linear_1910_22828" x1="58.3915" y1="24.2305" x2="58.3915" y2="30.0005" gradientUnits="userSpaceOnUse">
<stop stop-color="#E3B69F"/>
<stop offset="1" stop-color="#C38A6E"/>
</linearGradient>
<linearGradient id="paint10_linear_1910_22828" x1="58.3914" y1="24.2305" x2="58.3914" y2="30.0005" gradientUnits="userSpaceOnUse">
<stop stop-color="#E3B69F"/>
<stop offset="1" stop-color="#C38A6E"/>
</linearGradient>
<linearGradient id="paint11_linear_1910_22828" x1="58.3892" y1="24.2305" x2="58.3892" y2="30.0005" gradientUnits="userSpaceOnUse">
<stop stop-color="#E3B69F"/>
<stop offset="1" stop-color="#C38A6E"/>
</linearGradient>
<linearGradient id="paint12_linear_1910_22828" x1="58.3903" y1="24.2305" x2="58.3903" y2="30.0005" gradientUnits="userSpaceOnUse">
<stop stop-color="#E3B69F"/>
<stop offset="1" stop-color="#C38A6E"/>
</linearGradient>
<linearGradient id="paint13_linear_1910_22828" x1="58.3895" y1="24.2305" x2="58.3895" y2="30.0005" gradientUnits="userSpaceOnUse">
<stop stop-color="#E3B69F"/>
<stop offset="1" stop-color="#C38A6E"/>
</linearGradient>
<linearGradient id="paint14_linear_1910_22828" x1="58.3898" y1="24.2305" x2="58.3898" y2="30.0005" gradientUnits="userSpaceOnUse">
<stop stop-color="#E3B69F"/>
<stop offset="1" stop-color="#C38A6E"/>
</linearGradient>
<linearGradient id="paint15_linear_1910_22828" x1="58.39" y1="24.2305" x2="58.39" y2="30.0005" gradientUnits="userSpaceOnUse">
<stop stop-color="#E3B69F"/>
<stop offset="1" stop-color="#C38A6E"/>
</linearGradient>
<clipPath id="clip0_1910_22828">
<rect width="148" height="30" fill="white"/>
</clipPath>
</defs>
</svg>
