<svg width="28" height="27" viewBox="0 0 28 27" fill="none" xmlns="http://www.w3.org/2000/svg">
<path d="M14.0001 0C6.64008 0 0.666748 5.97333 0.666748 13.3333C0.666748 20.6933 6.64008 26.6667 14.0001 26.6667C21.3601 26.6667 27.3334 20.6933 27.3334 13.3333C27.3334 5.97333 21.3601 0 14.0001 0ZM20.1867 9.06667C19.9867 11.1733 19.1201 16.2933 18.6801 18.6533C18.4934 19.6533 18.1201 19.9867 17.7734 20.0267C17.0001 20.0933 16.4134 19.52 15.6667 19.0267C14.4934 18.2533 13.8267 17.7733 12.6934 17.0267C11.3734 16.16 12.2267 15.68 12.9867 14.9067C13.1867 14.7067 16.6001 11.6 16.6667 11.32C16.676 11.2776 16.6748 11.2336 16.6632 11.1917C16.6515 11.1499 16.6299 11.1116 16.6001 11.08C16.5201 11.0133 16.4134 11.04 16.3201 11.0533C16.2001 11.08 14.3334 12.32 10.6934 14.7733C10.1601 15.1333 9.68008 15.32 9.25341 15.3067C8.77341 15.2933 7.86675 15.04 7.18675 14.8133C6.34675 14.5467 5.69341 14.4 5.74675 13.9333C5.77341 13.6933 6.10675 13.4533 6.73342 13.2C10.6267 11.5067 13.2134 10.3867 14.5067 9.85333C18.2134 8.30667 18.9734 8.04 19.4801 8.04C19.5868 8.04 19.8401 8.06667 20.0001 8.2C20.1334 8.30667 20.1734 8.45333 20.1867 8.56C20.1734 8.64 20.2001 8.88 20.1867 9.06667Z" fill="white"/>
</svg>
