<svg width="27" height="27" viewBox="0 0 27 27" fill="none" xmlns="http://www.w3.org/2000/svg">
<path d="M13.3333 0C11.5824 0 9.84856 0.344877 8.23089 1.01494C6.61321 1.685 5.14336 2.66713 3.90524 3.90524C1.40476 6.40573 0 9.79711 0 13.3333C0 16.8696 1.40476 20.2609 3.90524 22.7614C5.14336 23.9995 6.61321 24.9817 8.23089 25.6517C9.84856 26.3218 11.5824 26.6667 13.3333 26.6667C16.8696 26.6667 20.2609 25.2619 22.7614 22.7614C25.2619 20.2609 26.6667 16.8696 26.6667 13.3333C26.6667 11.5824 26.3218 9.84856 25.6517 8.23089C24.9817 6.61321 23.9995 5.14336 22.7614 3.90524C21.5233 2.66713 20.0535 1.685 18.4358 1.01494C16.8181 0.344877 15.0843 0 13.3333 0ZM4.66667 8.66667H6.66667C7.14667 8.66667 7.33333 8.88 7.52 9.42667C8.48 12.2267 10.0933 14.6667 10.76 14.6667C11.0133 14.6667 11.1333 14.56 11.1333 13.9333V11.04C11.0533 9.70667 10.3467 9.58667 10.3467 9.12C10.3467 8.89333 10.5333 8.66667 10.8533 8.66667H13.9333C14.36 8.66667 14.4933 8.89333 14.4933 9.38667V13.28C14.4933 13.6933 14.6667 13.84 14.8 13.84C15.0533 13.84 15.2667 13.6933 15.72 13.24C17.1333 11.6533 18.1333 9.22667 18.1333 9.22667C18.2667 8.93333 18.4933 8.66667 18.9867 8.66667H20.9467C21.5467 8.66667 21.68 8.97333 21.5467 9.38667C21.2933 10.5333 18.9067 13.9067 18.9067 13.9067C18.6667 14.24 18.6133 14.4 18.9067 14.7867C19.1067 15.0667 19.8 15.6533 20.2533 16.2C21.1067 17.1467 21.7333 17.9467 21.92 18.4933C22.08 19.0533 21.8 19.3333 21.24 19.3333H19.2667C18.52 19.3333 18.3067 18.7333 16.9733 17.4C15.8 16.28 15.3333 16.1333 15.0133 16.1333C14.6133 16.1333 14.4933 16.24 14.4933 16.8133V18.5733C14.4933 19.0533 14.3467 19.3333 13.0933 19.3333C11.0133 19.3333 8.72 18.0667 7.10667 15.7333C4.66667 12.32 4 9.74667 4 9.22667C4 8.93333 4.10667 8.66667 4.66667 8.66667Z" fill="white"/>
</svg>
